<?xml version="1.0" encoding="utf-8"?>
<!-- Generator: Adobe Illustrator 15.1.0, SVG Export Plug-In . SVG Version: 6.00 Build 0)  -->
<!DOCTYPE svg PUBLIC "-//W3C//DTD SVG 1.1//EN" "http://www.w3.org/Graphics/SVG/1.1/DTD/svg11.dtd">
<svg version="1.1"
	 id="svg2" sodipodi:docname="projector_chessboard.svg" inkscape:version="0.48.0 r9654" xmlns:inkscape="http://www.inkscape.org/namespaces/inkscape" xmlns:sodipodi="http://sodipodi.sourceforge.net/DTD/sodipodi-0.dtd" xmlns:svg="http://www.w3.org/2000/svg" xmlns:rdf="http://www.w3.org/1999/02/22-rdf-syntax-ns#" xmlns:cc="http://creativecommons.org/ns#" xmlns:dc="http://purl.org/dc/elements/1.1/"
	 xmlns="http://www.w3.org/2000/svg" xmlns:xlink="http://www.w3.org/1999/xlink" x="0px" y="0px" width="612px" height="792px"
	 viewBox="3391.382 -247.544 612 792" enable-background="new 3391.382 -247.544 612 792" xml:space="preserve">
<sodipodi:namedview  bordercolor="#666666" id="namedview4" borderopacity="1" inkscape:window-width="1680" pagecolor="#ffffff" guidetolerance="10" objecttolerance="10" gridtolerance="10" inkscape:zoom="0.13113356" inkscape:pageopacity="0" inkscape:pageshadow="2" inkscape:window-height="994" inkscape:cy="1052.3622" showgrid="false" inkscape:cx="1489.9607" inkscape:window-x="1022" inkscape:window-y="-3" inkscape:window-maximized="1" inkscape:current-layer="g10">
	</sodipodi:namedview>
<g id="g10" transform="matrix(1.25,0,0,-1.25,0,2104.7244)" inkscape:groupmode="layer" inkscape:label="projector_chessboard">
	<g id="g3173">
		<g id="g3163">
			<path id="path14" inkscape:connector-curvature="0" d="M1899.211,1303.936h113.388v-113.383h-113.388V1303.936z"/>
			<path id="path16" inkscape:connector-curvature="0" d="M2012.599,1417.323h113.387v-113.387h-113.387V1417.323z"/>
			<path id="path18" inkscape:connector-curvature="0" d="M2125.984,1303.936h113.387v-113.383h-113.387V1303.936z"/>
			<path id="path20" inkscape:connector-curvature="0" d="M2239.371,1417.323h113.387v-113.387h-113.387V1417.323z"/>
			<path id="path22" inkscape:connector-curvature="0" d="M1899.211,1530.709h113.388v-113.387h-113.388V1530.709z"/>
			<path id="path24" inkscape:connector-curvature="0" d="M2012.599,1644.096h113.387v-113.387h-113.387V1644.096z"/>
			<path id="path26" inkscape:connector-curvature="0" d="M2125.984,1530.709h113.387v-113.387h-113.387V1530.709z"/>
			<path id="path28" inkscape:connector-curvature="0" d="M2239.371,1644.096h113.387v-113.387h-113.387V1644.096z"/>
		</g>
		<g id="g3121">
			<path id="path30" inkscape:connector-curvature="0" d="M28.348,1190.553h113.383v-113.387H28.348V1190.553z"/>
			<path id="path32" inkscape:connector-curvature="0" d="M141.73,1303.936h113.387v-113.383H141.73V1303.936L141.73,1303.936z"/>
			<path id="path34" inkscape:connector-curvature="0" d="M255.117,1190.553h113.387v-113.387H255.117V1190.553z"/>
			<path id="path36" inkscape:connector-curvature="0" d="M368.504,1303.936h113.387v-113.383H368.504V1303.936z"/>
			<path id="path38" inkscape:connector-curvature="0" d="M28.348,1417.323h113.383v-113.387H28.348V1417.323z"/>
			<path id="path40" inkscape:connector-curvature="0" d="M141.73,1530.709h113.387v-113.387H141.73V1530.709L141.73,1530.709z"/>
			<path id="path42" inkscape:connector-curvature="0" d="M255.117,1417.323h113.387v-113.387H255.117V1417.323z"/>
			<path id="path44" inkscape:connector-curvature="0" d="M368.504,1530.709h113.387v-113.387H368.504V1530.709z"/>
			<path id="path46" inkscape:connector-curvature="0" d="M28.348,1644.096h113.383v-113.387H28.348V1644.096z"/>
			<path id="path48" inkscape:connector-curvature="0" d="M255.117,1644.096h113.387v-113.387H255.117V1644.096z"/>
		</g>
		<g id="g3147">
			<path id="path50" inkscape:connector-curvature="0" d="M1899.211,141.733h113.388V28.346h-113.388V141.733z"/>
			<path id="path52" inkscape:connector-curvature="0" d="M2012.599,255.119h113.387V141.732h-113.387V255.119z"/>
			<path id="path54" inkscape:connector-curvature="0" d="M2125.984,141.733h113.387V28.346h-113.387V141.733z"/>
			<path id="path56" inkscape:connector-curvature="0" d="M2239.371,255.119h113.387V141.732h-113.387V255.119z"/>
			<path id="path58" inkscape:connector-curvature="0" d="M1899.211,368.502h113.388V255.119h-113.388V368.502z"/>
			<path id="path60" inkscape:connector-curvature="0" d="M2012.599,481.889h113.387V368.502h-113.387V481.889z"/>
			<path id="path62" inkscape:connector-curvature="0" d="M2125.984,368.502h113.387V255.119h-113.387V368.502z"/>
			<path id="path64" inkscape:connector-curvature="0" d="M2239.371,481.889h113.387V368.502h-113.387V481.889z"/>
			<path id="path66" inkscape:connector-curvature="0" d="M1899.211,595.276h113.388V481.889h-113.388V595.276z"/>
			<path id="path68" inkscape:connector-curvature="0" d="M2012.599,708.662h113.387V595.275h-113.387V708.662z"/>
			<path id="path70" inkscape:connector-curvature="0" d="M2125.984,595.276h113.387V481.889h-113.387V595.276z"/>
			<path id="path72" inkscape:connector-curvature="0" d="M2239.371,708.662h113.387V595.275h-113.387V708.662z"/>
			<path id="path74" inkscape:connector-curvature="0" d="M1899.211,822.049h113.388V708.662h-113.388V822.049z"/>
			<path id="path76" inkscape:connector-curvature="0" d="M2125.984,822.049h113.387V708.662h-113.387V822.049z"/>
		</g>
		<g id="g3133">
			<path id="path78" inkscape:connector-curvature="0" d="M28.348,141.733h113.383V28.346H28.348V141.733z"/>
			<path id="path80" inkscape:connector-curvature="0" d="M141.73,255.119h113.387V141.732H141.73V255.119L141.73,255.119z"/>
			<path id="path82" inkscape:connector-curvature="0" d="M255.117,141.733h113.387V28.346H255.117V141.733z"/>
			<path id="path84" inkscape:connector-curvature="0" d="M368.504,255.119h113.387V141.732H368.504V255.119z"/>
			<path id="path86" inkscape:connector-curvature="0" d="M28.348,368.506h113.383V255.119H28.348V368.506z"/>
			<path id="path88" inkscape:connector-curvature="0" d="M141.73,481.889h113.387V368.502H141.73V481.889L141.73,481.889z"/>
			<path id="path90" inkscape:connector-curvature="0" d="M255.117,368.506h113.387V255.119H255.117V368.506z"/>
			<path id="path92" inkscape:connector-curvature="0" d="M368.504,481.889h113.387V368.502H368.504V481.889z"/>
			<path id="path94" inkscape:connector-curvature="0" d="M28.348,595.276h113.383V481.889H28.348V595.276z"/>
			<path id="path96" inkscape:connector-curvature="0" d="M141.73,708.662h113.387V595.275H141.73V708.662L141.73,708.662z"/>
			<path id="path98" inkscape:connector-curvature="0" d="M255.117,595.276h113.387V481.889H255.117V595.276z"/>
			<path id="path100" inkscape:connector-curvature="0" d="M368.504,708.662h113.387V595.275H368.504V708.662z"/>
		</g>
	</g>
</g>
<g id="g10_1_" transform="matrix(1.25,0,0,-1.25,0,2104.7244)" inkscape:groupmode="layer" inkscape:label="projector_chessboard">
	<g id="g3173_1_">
		<g id="g3133_1_">
			<path id="path78_1_" inkscape:connector-curvature="0" d="M2742.138,685.125h79.368v-79.37h-79.368V685.125z"/>
			<path id="path80_1_" inkscape:connector-curvature="0" d="M2821.505,764.496h79.372v-79.371h-79.372V764.496L2821.505,764.496z"
				/>
			<path id="path82_1_" inkscape:connector-curvature="0" d="M2900.877,685.125h79.37v-79.37h-79.37V685.125z"/>
			<path id="path84_1_" inkscape:connector-curvature="0" d="M2980.247,764.496h79.371v-79.371h-79.371V764.496z"/>
			<path id="path86_1_" inkscape:connector-curvature="0" d="M2742.138,843.867h79.368v-79.371h-79.368V843.867z"/>
			<path id="path88_1_" inkscape:connector-curvature="0" d="M2821.505,923.234h79.372v-79.37h-79.372V923.234L2821.505,923.234z"/>
			<path id="path90_1_" inkscape:connector-curvature="0" d="M2900.877,843.867h79.37v-79.371h-79.37V843.867z"/>
			<path id="path92_1_" inkscape:connector-curvature="0" d="M2980.247,923.234h79.371v-79.37h-79.371V923.234z"/>
			<path id="path94_1_" inkscape:connector-curvature="0" d="M2742.138,1002.606h79.368v-79.372h-79.368V1002.606z"/>
			<path id="path96_1_" inkscape:connector-curvature="0" d="M2821.505,1081.976h79.372v-79.371h-79.372V1081.976L2821.505,1081.976
				z"/>
			<path id="path98_1_" inkscape:connector-curvature="0" d="M2900.877,1002.606h79.37v-79.372h-79.37V1002.606z"/>
			<path id="path100_1_" inkscape:connector-curvature="0" d="M2980.247,1081.976h79.371v-79.371h-79.371V1081.976z"/>
		</g>
	</g>
</g>
<g id="g3121_1_">
	<path id="path30_1_" inkscape:connector-curvature="0" d="M3427.673,186.416h99.21v99.213h-99.21V186.416z"/>
	<path id="path32_1_" inkscape:connector-curvature="0" d="M3526.882,87.206h99.215v99.21h-99.215V87.206L3526.882,87.206z"/>
	<path id="path34_1_" inkscape:connector-curvature="0" d="M3626.097,186.416h99.212v99.213h-99.212V186.416z"/>
	<path id="path36_1_" inkscape:connector-curvature="0" d="M3725.309,87.206h99.214v99.21h-99.214V87.206z"/>
	<path id="path38_1_" inkscape:connector-curvature="0" d="M3427.673-12.008h99.21v99.214h-99.21V-12.008z"/>
	<path id="path40_1_" inkscape:connector-curvature="0" d="M3526.882-111.221h99.215v99.214h-99.215V-111.221L3526.882-111.221z"/>
	<path id="path42_1_" inkscape:connector-curvature="0" d="M3626.097-12.008h99.212v99.214h-99.212V-12.008z"/>
	<path id="path44_1_" inkscape:connector-curvature="0" d="M3725.309-111.221h99.214v99.214h-99.214V-111.221z"/>
	<path id="path46_1_" inkscape:connector-curvature="0" d="M3427.673-210.434h99.21v99.213h-99.21V-210.434z"/>
	<path id="path48_1_" inkscape:connector-curvature="0" d="M3626.097-210.434h99.212v99.213h-99.212V-210.434z"/>
</g>
<g id="g3163_1_">
	<path id="path14_1_" inkscape:connector-curvature="0" d="M4246.173,87.206h99.213v99.21h-99.213V87.206z"/>
	<path id="path16_1_" inkscape:connector-curvature="0" d="M4345.386-12.008h99.213v99.214h-99.213V-12.008z"/>
	<path id="path18_1_" inkscape:connector-curvature="0" d="M4444.599,87.206h99.213v99.21h-99.213V87.206z"/>
	<path id="path20_1_" inkscape:connector-curvature="0" d="M4543.812-12.008h99.215v99.214h-99.215V-12.008z"/>
	<path id="path22_1_" inkscape:connector-curvature="0" d="M4246.173-111.221h99.213v99.214h-99.213V-111.221z"/>
	<path id="path24_1_" inkscape:connector-curvature="0" d="M4345.386-210.434h99.213v99.213h-99.213V-210.434z"/>
	<path id="path26_1_" inkscape:connector-curvature="0" d="M4444.599-111.221h99.213v99.214h-99.213V-111.221z"/>
	<path id="path28_1_" inkscape:connector-curvature="0" d="M4543.812-210.434h99.215v99.213h-99.215V-210.434z"/>
</g>
<g id="g3147_1_">
	<path id="path50_1_" inkscape:connector-curvature="0" d="M4246.173,1248.318h99.213v99.213h-99.213V1248.318z"/>
	<path id="path52_1_" inkscape:connector-curvature="0" d="M4345.386,1149.104h99.213v99.214h-99.213V1149.104z"/>
	<path id="path54_1_" inkscape:connector-curvature="0" d="M4444.599,1248.318h99.213v99.213h-99.213V1248.318z"/>
	<path id="path56_1_" inkscape:connector-curvature="0" d="M4543.812,1149.104h99.215v99.214h-99.215V1149.104z"/>
	<path id="path58_1_" inkscape:connector-curvature="0" d="M4246.173,1049.895h99.213v99.209h-99.213V1049.895z"/>
	<path id="path60_1_" inkscape:connector-curvature="0" d="M4345.386,950.682h99.213v99.213h-99.213V950.682z"/>
	<path id="path62_1_" inkscape:connector-curvature="0" d="M4444.599,1049.895h99.213v99.209h-99.213V1049.895z"/>
	<path id="path64_1_" inkscape:connector-curvature="0" d="M4543.812,950.682h99.215v99.213h-99.215V950.682z"/>
	<path id="path66_1_" inkscape:connector-curvature="0" d="M4246.173,851.467h99.213v99.215h-99.213V851.467z"/>
	<path id="path68_1_" inkscape:connector-curvature="0" d="M4345.386,752.255h99.213v99.214h-99.213V752.255z"/>
	<path id="path70_1_" inkscape:connector-curvature="0" d="M4444.599,851.467h99.213v99.215h-99.213V851.467z"/>
	<path id="path72_1_" inkscape:connector-curvature="0" d="M4543.812,752.255h99.215v99.214h-99.215V752.255z"/>
	<path id="path74_1_" inkscape:connector-curvature="0" d="M4246.173,653.042h99.213v99.213h-99.213V653.042z"/>
	<path id="path76_1_" inkscape:connector-curvature="0" d="M4444.599,653.042h99.213v99.213h-99.213V653.042z"/>
</g>
</svg>
